<svg width="126" height="126" viewBox="0 0 126 126" fill="none" xmlns="http://www.w3.org/2000/svg">
<g clip-path="url(#clip0_6_167)">
<path d="M35.5084 56.5136C35.5084 58.0807 35.6764 59.3486 35.9704 60.2805C36.3064 61.2124 36.7238 62.2282 37.3118 63.3281C37.5218 63.6668 37.6058 64.0054 37.6058 64.302C37.6058 64.7246 37.3538 65.1472 36.8104 65.5725L34.1696 67.3496C33.7916 67.6042 33.4163 67.7303 33.0803 67.7303C32.6603 67.7303 32.2429 67.5176 31.8229 67.137C31.2349 66.5018 30.7335 65.8245 30.3135 65.1473C29.8935 64.428 29.4761 63.6248 29.0141 62.6509C25.746 66.5438 21.6379 68.4915 16.6924 68.4915C13.1723 68.4915 10.3635 67.4756 8.31076 65.4439C6.25801 63.4121 5.21063 60.7031 5.21063 57.3169C5.21063 53.7206 6.46801 50.799 9.02476 48.5993C11.5815 46.3995 14.9756 45.297 19.2911 45.297C20.7165 45.297 22.1839 45.423 23.7326 45.6356C25.2814 45.8483 26.8748 46.1869 28.5521 46.5675V43.4779C28.5521 40.2622 27.8828 38.0179 26.5834 36.7054C25.242 35.3929 22.9793 34.7576 19.7531 34.7576C18.2858 34.7576 16.779 34.9256 15.2276 35.3089C13.6763 35.6895 12.1695 36.1541 10.7021 36.7474C10.0328 37.044 9.52876 37.212 9.23476 37.2986C8.94076 37.3826 8.73076 37.4246 8.56538 37.4246C7.97738 37.4246 7.68601 37.002 7.68601 36.1121V34.0384C7.68601 33.3611 7.77001 32.8545 7.98001 32.5579C8.19001 32.2612 8.56801 31.9646 9.15338 31.668C10.6208 30.9068 12.3795 30.2715 14.4349 29.7623C16.4876 29.211 18.6664 28.959 20.9711 28.959C25.9586 28.959 29.6048 30.1009 31.9515 32.3873C34.2563 34.6736 35.4296 38.1439 35.4296 42.798V56.511L35.5084 56.5136ZM18.4931 62.9449C19.8765 62.9449 21.3019 62.6902 22.8086 62.1836C24.318 61.677 25.6594 60.7451 26.7908 59.4746C27.4601 58.6714 27.9641 57.7815 28.2161 56.7656C28.4681 55.7498 28.6361 54.5212 28.6361 53.0828V51.3056C27.4208 51.009 26.1214 50.7544 24.78 50.5864C23.4386 50.4184 22.1393 50.3317 20.8399 50.3317C18.0311 50.3317 15.9784 50.883 14.595 52.0249C13.2116 53.1667 12.5423 54.7759 12.5423 56.8916C12.5423 58.8814 13.0463 60.3619 14.0936 61.3778C15.099 62.4383 16.5664 62.9449 18.4931 62.9449ZM52.1456 67.5176C51.3923 67.5176 50.8882 67.3916 50.5522 67.095C50.2163 66.8404 49.9249 66.2497 49.6729 65.4439L39.8239 32.7285C39.5719 31.8833 39.4459 31.332 39.4459 31.0354C39.4459 30.3581 39.7819 29.9775 40.4513 29.9775H44.5594C45.3548 29.9775 45.9008 30.1035 46.1948 30.4001C46.5308 30.6548 46.7801 31.2454 47.0321 32.0512L54.0724 60.0705L60.6086 32.0512C60.8186 31.206 61.0706 30.6548 61.404 30.4001C61.74 30.1455 62.3254 29.9775 63.0814 29.9775H66.4335C67.2289 29.9775 67.7749 30.1035 68.1109 30.4001C68.4469 30.6548 68.7383 31.2454 68.9062 32.0512L75.5265 60.4091L82.7767 32.0512C83.0287 31.206 83.3228 30.6548 83.6141 30.4001C83.9501 30.1455 84.4935 29.9775 85.2495 29.9775H89.1476C89.817 29.9775 90.195 30.3161 90.195 31.0354C90.195 31.248 90.153 31.458 90.111 31.7126C90.069 31.9673 89.985 32.3059 89.817 32.7705L79.7186 65.4859C79.4666 66.3311 79.1726 66.8824 78.8392 67.137C78.5059 67.3916 77.9599 67.5596 77.2459 67.5596H73.6418C72.8464 67.5596 72.3004 67.4336 71.9644 67.137C71.6284 66.8404 71.337 66.2917 71.169 65.4439L64.6748 38.1439L58.2225 65.4019C58.0125 66.2471 57.7605 66.7984 57.4271 67.095C57.0911 67.3916 56.5058 67.5176 55.7498 67.5176H52.1456ZM105.995 68.6595C103.816 68.6595 101.637 68.4049 99.5426 67.8982C97.4479 67.3916 95.8125 66.8404 94.7231 66.2051C94.0537 65.8245 93.5918 65.4019 93.4238 65.0213C93.2557 64.6406 93.1717 64.218 93.1717 63.8374V61.6796C93.1717 60.7897 93.5078 60.3671 94.1351 60.3671C94.3871 60.3671 94.6391 60.4091 94.8885 60.4931C95.1405 60.5771 95.5159 60.7477 95.9359 60.9157C97.3613 61.551 98.91 62.0576 100.545 62.3963C102.223 62.7349 103.855 62.9029 105.533 62.9029C108.174 62.9029 110.226 62.4382 111.652 61.5064C113.077 60.5745 113.83 59.22 113.83 57.4849C113.83 56.301 113.452 55.3271 112.699 54.5213C111.946 53.718 110.52 52.9987 108.468 52.3215L102.391 50.4157C99.3326 49.4419 97.0699 48.0034 95.6865 46.0976C94.3031 44.2365 93.5917 42.1627 93.5917 39.9604C93.5917 38.1832 93.9697 36.6161 94.7231 35.2616C95.4765 33.9071 96.4845 32.7233 97.7393 31.7914C98.9966 30.8175 100.422 30.0982 102.097 29.5916C103.774 29.0876 105.533 28.875 107.378 28.875C108.3 28.875 109.263 28.917 110.187 29.043C111.15 29.169 112.03 29.3396 112.912 29.5076C113.749 29.7203 114.547 29.9302 115.3 30.1849C116.054 30.4395 116.642 30.6915 117.062 30.9461C117.65 31.2847 118.067 31.6234 118.319 32.004C118.571 32.3426 118.697 32.8073 118.697 33.4005V35.3903C118.697 36.2801 118.361 36.7448 117.734 36.7448C117.398 36.7448 116.854 36.5768 116.14 36.2381C113.752 35.1383 111.069 34.587 108.095 34.587C105.706 34.587 103.821 34.9676 102.522 35.7709C101.223 36.5741 100.553 37.8026 100.553 39.5378C100.553 40.7216 100.973 41.7375 101.811 42.5434C102.648 43.3466 104.199 44.1525 106.42 44.8717L112.371 46.7775C115.387 47.7514 117.568 49.1059 118.865 50.841C120.162 52.5761 120.792 54.5659 120.792 56.7656C120.792 58.5847 120.414 60.2359 119.703 61.6744C118.949 63.1129 117.941 64.3834 116.645 65.3993C115.345 66.4571 113.794 67.2184 111.993 67.7696C110.1 68.3629 108.132 68.6595 105.995 68.6595Z" fill="#252F3E"/>
<path d="M113.914 89.229C100.128 99.5138 80.0966 104.974 62.8714 104.974C38.7345 104.974 16.9837 95.9595 0.556499 80.976C-0.742876 79.7921 0.430499 78.183 1.98187 79.1149C19.7505 89.5256 41.6666 95.8335 64.3387 95.8335C79.6346 95.8335 96.4399 92.6179 111.901 86.0134C114.208 84.9555 116.177 87.5359 113.914 89.229ZM119.655 82.6271C117.894 80.3408 108.006 81.5273 103.522 82.0759C102.181 82.2439 101.971 81.06 103.186 80.1701C111.064 74.5841 124.013 76.1906 125.522 78.0544C127.032 79.9601 125.102 93.0379 117.729 99.3011C116.597 100.275 115.508 99.7658 116.009 98.4979C117.687 94.3084 121.417 84.8689 119.655 82.6271Z" fill="#FF9900"/>
</g>
<defs>
<clipPath id="clip0_6_167">
<rect width="126" height="126" fill="white"/>
</clipPath>
</defs>
</svg>
