<svg width="88" height="132" viewBox="0 0 88 132" fill="none" xmlns="http://www.w3.org/2000/svg">
<path d="M66.0032 44.0086C71.8371 44.0086 77.4321 41.6903 81.5573 37.5637C85.6825 33.4371 88 27.8402 88 22.0043C88 16.1684 85.6825 10.5715 81.5573 6.44491C77.4321 2.3183 71.8371 0 66.0032 0L22.0097 0C16.1792 0 10.5875 2.31695 6.46471 6.44113C2.34193 10.5653 0.0257784 16.1589 0.0257784 21.9914C0.0257784 27.8239 2.34193 33.4175 6.46471 37.5417C10.5875 41.6659 16.1792 43.9828 22.0097 43.9828C16.1758 43.9828 10.5808 46.3011 6.4556 50.4277C2.3304 54.5543 0.0128924 60.1512 0.0128924 65.9871C0.0128924 71.823 2.3304 77.4199 6.4556 81.5465C10.5808 85.6731 16.1758 87.9914 22.0097 87.9914C17.6591 87.9889 13.4055 89.2769 9.78675 91.6926C6.16798 94.1084 3.34659 97.5433 1.67935 101.563C0.0121112 105.583 -0.426089 110.007 0.420162 114.276C1.26641 118.545 3.35911 122.467 6.43361 125.546C9.50811 128.625 13.4263 130.723 17.6928 131.575C21.9592 132.426 26.3823 131.993 30.4027 130.33C34.423 128.667 37.8601 125.849 40.2793 122.231C42.6984 118.614 43.991 114.361 43.9936 110.009V44.0086H66.0032ZM66.0032 44.0086C61.6552 44.0086 57.4049 45.2984 53.7896 47.7148C50.1744 50.1313 47.3567 53.5658 45.6928 57.5843C44.0288 61.6027 43.5935 66.0244 44.4417 70.2903C45.29 74.5562 47.3838 78.4747 50.4583 81.5503C53.5328 84.6258 57.4499 86.7203 61.7144 87.5688C65.9788 88.4174 70.3991 87.9819 74.4161 86.3174C78.4331 84.6529 81.8665 81.8342 84.2822 78.2178C86.6978 74.6013 87.9871 70.3495 87.9871 66C87.9864 60.1677 85.6701 54.5745 81.5474 50.4505C77.4248 46.3264 71.8335 44.0093 66.0032 44.0086Z" fill="#F6F6F6"/>
</svg>
