<svg width="126" height="126" viewBox="0 0 126 126" fill="none" xmlns="http://www.w3.org/2000/svg">
<path d="M62.0813 65.3573C59.4615 61.1337 57.561 57.6319 54.9281 51.0379C50.4761 39.9001 82.005 29.8358 69.2213 10.4974C74.7626 23.8561 49.3316 32.1143 46.9691 43.2391C44.8088 53.4713 62.0681 65.3573 62.0813 65.3573Z" fill="#F44336"/>
<path d="M62.6798 45.3338C62.1758 51.9383 68.5309 55.4584 68.7146 60.2832C68.8616 64.2102 64.9163 67.4835 64.9163 67.4835C64.9163 67.4835 72.0773 66.0765 74.3111 60.0863C76.7918 53.4345 69.4969 48.8802 70.2476 43.554C70.9485 38.4668 86.079 29.0037 86.079 29.0037C86.079 29.0037 63.8164 30.4789 62.6798 45.3338Z" fill="#F44336"/>
<path d="M84.2205 65.7694C88.8248 64.7352 92.7071 67.6673 92.7071 71.0457C92.7071 78.6608 82.152 85.8585 82.152 85.8585C82.152 85.8585 98.4926 83.9108 98.4926 71.4079C98.4926 63.1392 90.468 61.0733 84.2205 65.7694ZM76.4636 71.9119C76.4636 71.9119 81.5588 68.2815 82.9159 66.9192C70.413 69.573 41.8661 69.93 41.8661 67.6253C41.8661 65.5017 51.072 63.3255 51.072 63.3255C51.072 63.3255 30.6679 63.0315 30.6679 69.0507C30.6679 75.3244 57.3773 75.7733 76.4636 71.9119Z" fill="#1565C0"/>
<path d="M73.3294 77.624C61.4933 81.5588 39.6926 80.3015 46.1501 75.0173C43.0054 75.0173 38.3434 77.5452 38.3434 79.976C38.3434 84.8506 61.9211 88.6148 79.3721 81.4775L73.3294 77.624Z" fill="#1565C0"/>
<path d="M49.0508 85.9399C44.7563 85.9399 41.9764 88.7067 41.9764 90.7227C41.9764 96.9991 67.5964 97.6317 77.7473 91.2608L71.295 86.9768C63.7114 90.3106 44.6618 90.7699 49.0508 85.9399Z" fill="#1565C0"/>
<path d="M95.2376 96.159C95.2376 93.702 92.4682 92.5444 91.476 91.9905C97.3245 106.095 32.8939 105 32.8939 96.6735C32.8939 94.7809 37.6372 92.9276 42.021 93.8044L38.2935 91.602C29.5575 90.2317 23.625 94.0721 23.625 97.1696C23.625 111.615 95.2376 110.919 95.2376 96.159Z" fill="#1565C0"/>
<path d="M102.375 101.336C91.4917 112.085 63.8951 116.001 36.1436 109.36C63.8951 121.181 102.244 114.524 102.375 101.336Z" fill="#1565C0"/>
</svg>
