<svg width="126" height="126" viewBox="0 0 126 126" fill="none" xmlns="http://www.w3.org/2000/svg">
<path d="M110.25 45.4125C110.25 99.225 63 115.5 63 115.5C63 115.5 15.75 99.225 15.75 45.4125C15.75 38.85 16.275 33.3375 16.8 28.875C17.5875 22.3125 22.05 17.0625 28.35 15.4875C36.4875 13.125 49.35 10.5 63 10.5C76.65 10.5 89.5125 13.125 97.9125 15.4875C104.213 17.0625 108.675 22.575 109.463 28.875C109.725 33.3375 110.25 39.1125 110.25 45.4125Z" fill="#5D4037"/>
<path d="M63 18.375C75.8625 18.375 87.9375 21 95.8125 23.1C98.9625 23.8875 101.062 26.5125 101.588 29.925C102.113 34.9125 102.375 40.1625 102.375 45.4125C102.375 86.3625 72.1875 102.9 63 106.837C53.8125 102.637 23.625 86.1 23.625 45.4125C23.625 40.1625 23.8875 34.9125 24.4125 29.925C24.675 26.5125 27.0375 23.8875 30.1875 23.1C38.0625 21 50.1375 18.375 63 18.375ZM63 10.5C49.35 10.5 36.4875 13.125 28.0875 15.4875C22.05 17.0625 17.325 22.575 16.8 28.875C16.275 33.3375 15.75 39.1125 15.75 45.4125C15.75 99.225 63 115.5 63 115.5C63 115.5 110.25 99.225 110.25 45.4125C110.25 38.85 109.725 33.3375 109.2 28.875C108.412 22.3125 103.95 17.0625 97.65 15.4875C89.5125 13.125 76.65 10.5 63 10.5Z" fill="#4CAF50"/>
<path d="M60.375 73.5H65.625V94.5H60.375V73.5Z" fill="#DCEDC8"/>
<path d="M63 26.25C63 26.25 47.25 39.375 47.25 60.375C47.25 74.025 55.9125 82.6875 60.375 86.625L63 78.75L65.625 86.625C70.0875 82.6875 78.75 74.025 78.75 60.375C78.75 39.375 63 26.25 63 26.25Z" fill="#4CAF50"/>
<path d="M63 26.25C63 26.25 47.25 39.375 47.25 60.375C47.25 74.025 55.9125 82.6875 60.375 86.625L63 78.75V26.25Z" fill="#81C784"/>
</svg>
